<svg width="63" height="63" viewBox="0 0 63 63" fill="none" xmlns="http://www.w3.org/2000/svg">
<path d="M62.7053 36.679C62.7213 39.2099 61.5174 41.7408 59.0616 43.2238L38.2266 55.83L31.6615 51.4936L52.7693 38.5489C54.1338 37.7107 54.1338 35.7278 52.7854 34.8735L49.3343 32.7132L31.501 21.5579L38.2266 17.5762L54.5992 27.5548L59.1097 30.2952C61.4853 31.7622 62.6892 34.2125 62.7053 36.679Z" fill="white"/>
<path d="M62.7042 28.554V36.6788C62.6882 34.2123 61.4843 31.762 59.0926 30.295L54.5821 27.5546L38.2095 17.576V9.16113L58.3863 21.0258C61.067 22.5734 62.7042 25.4428 62.7042 28.554Z" fill="#D9D9D9"/>
<path d="M38.2239 9.16113V17.576L31.4982 21.5578L13.3118 32.3102L10.0533 30.1339C8.6408 29.1988 8.68896 27.1032 10.1336 26.2166L31.113 13.4814L38.2239 9.16113Z" fill="#AAAAAA"/>
<path d="M52.7691 38.5485L31.6612 51.4771L24.5664 55.8135V47.2213L31.2439 43.3041L49.318 32.7129L52.7691 34.873C54.1494 35.7274 54.1334 37.7102 52.7691 38.5485Z" fill="#AAAAAA"/>
<path d="M31.2596 43.3043L24.5821 47.2216L3.73115 34.7283C1.37157 33.3096 0.119551 30.9238 0.00719012 28.4897C-0.105171 25.8459 1.09869 23.1377 3.66695 21.5739L24.3734 9L31.1152 13.4492L10.1357 26.1845C8.69109 27.071 8.64293 29.1668 10.0555 30.1017L13.3139 32.278L31.2596 43.3043Z" fill="white"/>
<path d="M24.5801 47.2207V55.813L3.69699 43.3196C1.40161 41.9493 0.00512695 39.4667 0.00512695 36.8069V28.5049C0.117488 30.9391 1.35346 33.3249 3.72909 34.7435L24.5801 47.2207Z" fill="#D9D9D9"/>
</svg>
